<svg xmlns="http://www.w3.org/2000/svg" xmlns:xlink="http://www.w3.org/1999/xlink" width="250" zoomAndPan="magnify" viewBox="0 0 187.5 60" height="80" preserveAspectRatio="xMidYMid meet" version="1.0"><defs><g/></defs><g fill="#ff00ff" fill-opacity="1"><g transform="translate(1.364679, 27.12578)"><g><path d="M 15.773438 0 L 15.773438 -4.566406 L 5.796875 -4.566406 L 5.796875 -20.039062 L 0.78125 -20.039062 L 0.78125 0 Z M 15.773438 0 "/></g></g></g><g fill="#ff00ff" fill-opacity="1"><g transform="translate(17.737181, 27.12578)"><g><path d="M 5.796875 0 L 5.796875 -20.039062 L 0.78125 -20.039062 L 0.78125 0 Z M 5.796875 0 "/></g></g></g><g fill="#ff00ff" fill-opacity="1"><g transform="translate(24.316222, 27.12578)"><g><path d="M 15.652344 0 L 15.652344 -4.566406 L 6.367188 -4.566406 L 15.652344 -16.101562 L 15.652344 -20.039062 L 0.601562 -20.039062 L 0.601562 -15.441406 L 9.972656 -15.441406 L 0.601562 -3.875 L 0.601562 0 Z M 15.652344 0 "/></g></g></g><g fill="#ff00ff" fill-opacity="1"><g transform="translate(40.56856, 27.12578)"><g><path d="M 15.652344 0 L 15.652344 -4.566406 L 6.367188 -4.566406 L 15.652344 -16.101562 L 15.652344 -20.039062 L 0.601562 -20.039062 L 0.601562 -15.441406 L 9.972656 -15.441406 L 0.601562 -3.875 L 0.601562 0 Z M 15.652344 0 "/></g></g></g><g fill="#ff00ff" fill-opacity="1"><g transform="translate(56.820902, 27.12578)"><g><path d="M 16.460938 -15.441406 L 16.460938 -20.039062 L 10.453125 -20.039062 L 10.453125 -12.316406 L 6.457031 -12.316406 L 6.457031 -20.039062 L 0.449219 -20.039062 L 0.449219 -15.441406 L 1.441406 -15.441406 L 1.441406 -7.902344 L 5.949219 -7.902344 L 5.949219 0 L 10.964844 0 L 10.964844 -7.902344 L 15.472656 -7.902344 L 15.472656 -15.441406 Z M 16.460938 -15.441406 "/></g></g></g><g fill="#00ffff" fill-opacity="1"><g transform="translate(0.203137, 26.004093)"><g><path d="M 15.773438 0 L 15.773438 -4.566406 L 5.796875 -4.566406 L 5.796875 -20.039062 L 0.78125 -20.039062 L 0.78125 0 Z M 15.773438 0 "/></g></g></g><g fill="#00ffff" fill-opacity="1"><g transform="translate(16.57564, 26.004093)"><g><path d="M 5.796875 0 L 5.796875 -20.039062 L 0.78125 -20.039062 L 0.78125 0 Z M 5.796875 0 "/></g></g></g><g fill="#00ffff" fill-opacity="1"><g transform="translate(23.15468, 26.004093)"><g><path d="M 15.652344 0 L 15.652344 -4.566406 L 6.367188 -4.566406 L 15.652344 -16.101562 L 15.652344 -20.039062 L 0.601562 -20.039062 L 0.601562 -15.441406 L 9.972656 -15.441406 L 0.601562 -3.875 L 0.601562 0 Z M 15.652344 0 "/></g></g></g><g fill="#00ffff" fill-opacity="1"><g transform="translate(39.407019, 26.004093)"><g><path d="M 15.652344 0 L 15.652344 -4.566406 L 6.367188 -4.566406 L 15.652344 -16.101562 L 15.652344 -20.039062 L 0.601562 -20.039062 L 0.601562 -15.441406 L 9.972656 -15.441406 L 0.601562 -3.875 L 0.601562 0 Z M 15.652344 0 "/></g></g></g><g fill="#00ffff" fill-opacity="1"><g transform="translate(55.659361, 26.004093)"><g><path d="M 16.460938 -15.441406 L 16.460938 -20.039062 L 10.453125 -20.039062 L 10.453125 -12.316406 L 6.457031 -12.316406 L 6.457031 -20.039062 L 0.449219 -20.039062 L 0.449219 -15.441406 L 1.441406 -15.441406 L 1.441406 -7.902344 L 5.949219 -7.902344 L 5.949219 0 L 10.964844 0 L 10.964844 -7.902344 L 15.472656 -7.902344 L 15.472656 -15.441406 Z M 16.460938 -15.441406 "/></g></g></g><g fill="#18307b" fill-opacity="1"><g transform="translate(0.783908, 26.564936)"><g><path d="M 15.773438 0 L 15.773438 -4.566406 L 5.796875 -4.566406 L 5.796875 -20.039062 L 0.78125 -20.039062 L 0.78125 0 Z M 15.773438 0 "/></g></g></g><g fill="#18307b" fill-opacity="1"><g transform="translate(17.15641, 26.564936)"><g><path d="M 5.796875 0 L 5.796875 -20.039062 L 0.78125 -20.039062 L 0.78125 0 Z M 5.796875 0 "/></g></g></g><g fill="#18307b" fill-opacity="1"><g transform="translate(23.735451, 26.564936)"><g><path d="M 15.652344 0 L 15.652344 -4.566406 L 6.367188 -4.566406 L 15.652344 -16.101562 L 15.652344 -20.039062 L 0.601562 -20.039062 L 0.601562 -15.441406 L 9.972656 -15.441406 L 0.601562 -3.875 L 0.601562 0 Z M 15.652344 0 "/></g></g></g><g fill="#18307b" fill-opacity="1"><g transform="translate(39.987789, 26.564936)"><g><path d="M 15.652344 0 L 15.652344 -4.566406 L 6.367188 -4.566406 L 15.652344 -16.101562 L 15.652344 -20.039062 L 0.601562 -20.039062 L 0.601562 -15.441406 L 9.972656 -15.441406 L 0.601562 -3.875 L 0.601562 0 Z M 15.652344 0 "/></g></g></g><g fill="#18307b" fill-opacity="1"><g transform="translate(56.240131, 26.564936)"><g><path d="M 16.460938 -15.441406 L 16.460938 -20.039062 L 10.453125 -20.039062 L 10.453125 -12.316406 L 6.457031 -12.316406 L 6.457031 -20.039062 L 0.449219 -20.039062 L 0.449219 -15.441406 L 1.441406 -15.441406 L 1.441406 -7.902344 L 5.949219 -7.902344 L 5.949219 0 L 10.964844 0 L 10.964844 -7.902344 L 15.472656 -7.902344 L 15.472656 -15.441406 Z M 16.460938 -15.441406 "/></g></g></g><g fill="#ffffff" fill-opacity="1"><g transform="translate(1.013641, 52.579785)"><g><path d="M 15.480469 -15.421875 L 15.480469 -20.011719 L 0.449219 -20.011719 L 0.449219 -15.421875 L 5.488281 -15.421875 L 5.488281 0 L 10.5 0 L 10.5 -15.421875 Z M 15.480469 -15.421875 "/></g></g></g><g fill="#ffffff" fill-opacity="1"><g transform="translate(16.943621, 52.579785)"><g><path d="M 15.808594 0 L 12.871094 -5.578125 L 15.808594 -5.578125 L 15.808594 -20.011719 L 0.78125 -20.011719 L 0.78125 0 L 5.789062 0 L 5.789062 -5.578125 L 7.949219 -5.578125 L 10.800781 0 Z M 10.800781 -10.140625 L 5.789062 -10.140625 L 5.789062 -15.421875 L 10.800781 -15.421875 Z M 10.800781 -10.140625 "/></g></g></g><g fill="#ffffff" fill-opacity="1"><g transform="translate(33.533605, 52.579785)"><g><path d="M 15.808594 0 L 15.808594 -20.011719 L 10.800781 -20.011719 L 10.800781 -4.558594 L 5.789062 -4.558594 L 5.789062 -20.011719 L 0.78125 -20.011719 L 0.78125 0 Z M 15.808594 0 "/></g></g></g><g fill="#ffffff" fill-opacity="1"><g transform="translate(50.123589, 52.579785)"><g><path d="M 15.808594 0 L 15.808594 -20.011719 L 0.78125 -20.011719 L 0.78125 0 Z M 10.800781 -4.558594 L 5.789062 -4.558594 L 5.789062 -15.421875 L 10.800781 -15.421875 Z M 10.800781 -4.558594 "/></g></g></g><g fill="#ffffff" fill-opacity="1"><g transform="translate(66.713572, 52.579785)"><g><path d="M 15.480469 0 L 15.480469 -20.011719 L 0.449219 -20.011719 L 0.449219 -15.421875 L 1.441406 -15.421875 L 1.441406 0 L 5.460938 0 L 5.460938 -15.421875 L 10.46875 -15.421875 L 10.46875 0 Z M 15.480469 0 "/></g></g></g><g fill="#ffffff" fill-opacity="1"><g transform="translate(82.973554, 52.579785)"><g><path d="M 15.808594 0 L 15.808594 -7.859375 L 10.800781 -7.859375 L 10.800781 -4.558594 L 5.789062 -4.558594 L 5.789062 -15.421875 L 15.808594 -15.421875 L 15.808594 -20.011719 L 0.78125 -20.011719 L 0.78125 0 Z M 15.808594 0 "/></g></g></g></svg>